# xmcd
#
# Track frame offsets: 
#        150
#        12213
#        25450
#        44438
#        65468
#        85982
#        114076
#        126021
#        140313
#        162275
#        195499
#        220980
#
# Disc length: 3274 seconds
#
# Revision: 1
# Processed by: cddbd v1.5.2PL0 Copyright (c) Steve Scherf et al.
# Submitted via: ExactAudioCopy v0.95b4
#
DISCID=9e0cc80c
DTITLE=Various Artist - Fania DJ Series Gilles Peterson CD 2
DYEAR=2007
DGENRE=Jazz
TTITLE0=Noro Morales Quintet - Saona
TTITLE1=Mon Rivera - Lluvia Con Nieve
TTITLE2=Charlie Palmieri - Sandstorm
TTITLE3=Willie Rosario - Last Tango In Paris
TTITLE4=Vladamir - Mambo Moderno
TTITLE5=Kako's New York After Hours Orch - Vitamina
TTITLE6=Eddie Palmieri - El Molestoso
TTITLE7=Tito Puente And His Concert Orchestra - El Rey Del Timbal
TTITLE8=Sabu Martinez - The Oracle
TTITLE9=Alegre Allstars - Manteca
TTITLE10=Tico Alegre Allstars - La Odisea De Tito
TTITLE11=Ricardo Ray Bobby Cruz - Ricardo Ray In Orbit
EXTD=YEAR: 2007
EXTT0=
EXTT1=
EXTT2=
EXTT3=
EXTT4=
EXTT5=
EXTT6=
EXTT7=
EXTT8=
EXTT9=
EXTT10=
EXTT11=
PLAYORDER=
